<svg version="1.1" xmlns="http://www.w3.org/2000/svg" x="0px" y="0px" viewBox="0 0 210 92.8" style="enable-background:new 0 0 210 92.8;" xml:space="preserve">

  <g id="Layer_2">
<rect x="-1346" y="-961.3" class="st0" width="1000" height="500"></rect>
    <rect x="-1346" y="-461.3" width="1000" height="500"></rect>
    <rect x="-2366" y="58.7" class="st0" width="1000" height="500"></rect>
    <rect x="-1346" y="58.7" class="st0" width="1000" height="500"></rect>
    <rect x="-2366" y="558.7" class="st1" width="1000" height="500"></rect>
    <rect x="-1346" y="558.7" class="st1" width="1000" height="500"></rect>
</g>
  <g id="Layer_1">
<g>
<g>
<g>
<g>
<path class="st2" d="M-1887.6-714.5c-2.6-2.4-3.9-5.4-3.9-9.2c0-3.4,1.2-6.3,3.6-8.5c2.4-2.3,5.7-3.7,10.1-4.4
						c1.1-0.1,2.1-0.2,3.1-0.4c3.5-0.4,5.6-0.7,6.3-0.9c1.8-0.3,2.8-1.3,2.8-3.1c0-1.8-0.8-3.3-2.3-4.4c-1.5-1.1-3.4-1.7-5.7-1.7
						c-4,0-7,1.5-8.8,4.4c-0.4,0.6-0.9,1-1.4,1c-0.4,0-0.7-0.1-1-0.3l-4.2-2.8c-0.4-0.3-0.7-0.7-0.7-1.3c0-0.1,0-0.4,0.1-0.7
						c1.4-2.7,3.6-4.9,6.4-6.4c2.8-1.5,6-2.3,9.6-2.3c3.3,0,6.2,0.6,8.6,1.9c2.5,1.2,4.4,3,5.8,5.3c1.4,2.3,2,4.9,2,7.9l0,28
						c0,0.4-0.1,0.8-0.4,1.1c-0.3,0.3-0.7,0.4-1.1,0.4h-5.1c-0.4,0-0.8-0.1-1.1-0.4c-0.3-0.3-0.4-0.7-0.4-1.2l0-3.8
						c-3.4,3.6-7.5,5.4-12.2,5.4C-1881.6-711-1885-712.2-1887.6-714.5z M-1871.2-720.5c1.7-1,3.1-2.3,4.2-3.9
						c1.1-1.6,1.6-3.3,1.6-5.1v-1.5l-5.6,0.8c-3,0.3-5,0.6-5.9,0.8c-4.1,0.7-6.1,2.5-6.1,5.3c0,1.5,0.6,2.8,1.7,3.7
						c1.1,0.9,2.7,1.4,4.5,1.4C-1874.8-719-1873-719.5-1871.2-720.5z"></path>
  <path class="st2" d="M-1839-712.3c-2.5-0.8-4.7-2-6.6-3.5c-0.2-0.2-0.4-0.5-0.5-0.8c-0.1-0.3-0.1-0.6,0-0.9
						c0.3-0.8,1.2-2.4,2.5-4.7c0.4-0.6,0.9-0.9,1.5-0.9c0.3,0,0.7,0.1,1,0.3c1.8,1.2,3.5,2.1,5,2.7c1.6,0.6,3.2,0.9,5,0.9
						c2.1,0,3.7-0.4,4.8-1.2c1.1-0.8,1.6-1.8,1.6-3.2c0-1.1-0.5-2-1.4-2.7c-0.9-0.6-2.7-1.5-5.4-2.5l-2.7-1c-2.2-0.8-4-1.8-5.6-2.7
						s-2.8-2.3-3.9-4c-1.1-1.7-1.6-3.8-1.6-6.3c0-3.9,1.3-7,3.9-9.4c2.6-2.3,6.1-3.5,10.4-3.5c2.5,0,5,0.4,7.5,1.2
						c2.4,0.8,4.6,2,6.4,3.4c0.2,0.2,0.4,0.5,0.5,0.8c0.1,0.3,0.1,0.6,0,0.9c-0.4,1-1.2,2.6-2.2,4.7c-0.3,0.5-0.8,0.8-1.4,0.8
						c-0.3,0-0.7-0.1-1-0.3c-3.4-2.2-6.6-3.4-9.5-3.4c-1.7,0-3,0.4-4,1.1c-1,0.7-1.5,1.7-1.5,3c0,1.3,0.5,2.4,1.6,3.2
						c1.1,0.9,3.1,1.9,6,3c2.8,1.1,5,2,6.6,2.8c1.6,0.8,3,2,4.3,3.7c1.3,1.7,2,3.8,2,6.4c0,2.6-0.7,4.9-2,6.9
						c-1.3,2-3.2,3.5-5.5,4.6c-2.4,1.1-5.1,1.6-8.1,1.6C-1833.9-711-1836.5-711.4-1839-712.3z"></path>
  <path class="st2" d="M-1797.1-698.2c-0.3-0.4-0.3-0.9-0.1-1.5l3.9-11l-14.6-42.5c-0.1-0.3-0.1-0.5-0.1-0.7
						c0-0.5,0.2-0.9,0.5-1.2c0.3-0.3,0.8-0.5,1.3-0.5h5.2c0.5,0,1,0.1,1.4,0.4c0.4,0.3,0.7,0.7,0.9,1.2l10.1,30.6l10.1-30.6
						c0.1-0.5,0.4-0.9,0.9-1.2c0.4-0.3,0.9-0.4,1.4-0.4h4.8c0.5,0,1,0.2,1.3,0.5c0.3,0.3,0.5,0.7,0.5,1.2c0,0.1-0.1,0.4-0.1,0.7
						l-18.7,54c-0.2,0.5-0.5,0.9-0.9,1.2c-0.4,0.3-0.9,0.4-1.4,0.4h-4.9C-1796.4-697.6-1796.8-697.8-1797.1-698.2z"></path>
  <path class="st2" d="M-1759.1-711.5c-0.3-0.3-0.4-0.7-0.4-1.1l0-41.4c0-0.4,0.1-0.8,0.4-1.1s0.7-0.4,1.1-0.4h5.8
						c0.4,0,0.8,0.1,1.1,0.4s0.4,0.7,0.4,1.1v4.4c1.4-1.9,3-3.4,5-4.4c1.9-1.1,4-1.6,6.3-1.6c2.8,0,5.4,0.7,7.6,2
						c2.3,1.3,4,3.2,5.3,5.6c1.3,2.4,1.9,5.1,1.9,8l0,27.4c0,0.4-0.1,0.8-0.4,1.1c-0.3,0.3-0.7,0.4-1.1,0.4h-5.8
						c-0.4,0-0.8-0.1-1.1-0.4c-0.3-0.3-0.4-0.7-0.4-1.1l0-26.3c0-2.6-0.7-4.7-2-6.1c-1.3-1.4-3.2-2.1-5.7-2.1c-2.9,0-5.3,1-7,2.9
						c-1.7,1.9-2.6,4.6-2.6,7.9l0,23.7c0,0.4-0.1,0.8-0.4,1.1c-0.3,0.3-0.7,0.4-1.1,0.4h-5.8C-1758.4-711-1758.8-711.2-1759.1-711.5
						z"></path>
  <path class="st2" d="M-1703.9-713.4c-2.7-1.6-4.9-3.7-6.4-6.5c-1.6-2.7-2.4-5.7-2.4-8.9v-9c0-3.2,0.8-6.2,2.4-8.9
						c1.6-2.7,3.7-4.9,6.4-6.5c2.7-1.6,5.7-2.4,8.9-2.4c2.5,0,4.9,0.5,7.2,1.5c2.3,1,4.2,2.4,5.9,4.3c0.3,0.3,0.5,0.7,0.5,1.2
						c0,0.5-0.2,1-0.7,1.5l-3.2,3.2c-0.3,0.3-0.7,0.5-1.2,0.5c-0.4,0-0.9-0.2-1.3-0.7c-1.9-1.9-4.3-2.9-7.2-2.9
						c-2.4,0-4.5,0.9-6.2,2.6c-1.7,1.7-2.6,3.8-2.6,6.2v9.8c0,2.4,0.9,4.5,2.6,6.2c1.7,1.7,3.8,2.6,6.2,2.6c2.9,0,5.3-1,7.2-2.9
						c0.4-0.4,0.8-0.7,1.3-0.7c0.4,0,0.8,0.2,1.2,0.5l3.2,3.2c0.4,0.4,0.7,0.9,0.7,1.5c0,0.4-0.2,0.8-0.5,1.2
						c-1.6,1.8-3.6,3.3-5.9,4.3s-4.7,1.5-7.2,1.5C-1698.3-711-1701.2-711.8-1703.9-713.4z"></path>
</g>
  <g>
<path class="st1" d="M-1889.5-679.7h1.9v15.1h9.4v1.7h-11.3V-679.7z"></path>
    <path class="st1" d="M-1818.9-679.7h-1.8l-7.6,16.9h1.9l6.6-14.7l6.5,14.7h2L-1818.9-679.7z"></path>
    <path class="st1" d="M-1760.1-679.7h7.1c1.9,0,3.4,0.6,4.4,1.5c0.7,0.7,1.1,1.6,1.1,2.7v0c0,2.2-1.3,3.3-2.7,3.9
						c2,0.6,3.6,1.8,3.6,4.1v0c0,2.9-2.4,4.6-6.1,4.6h-7.4V-679.7z M-1749.4-675.3c0-1.7-1.3-2.7-3.7-2.7h-5.1v5.8h5
						C-1751-672.2-1749.4-673.3-1749.4-675.3L-1749.4-675.3z M-1752.9-670.5h-5.3v5.9h5.6c2.5,0,4.1-1.1,4.1-3v0
						C-1748.5-669.5-1750-670.5-1752.9-670.5z"></path>
    <path class="st1" d="M-1696-665.5l1.2-1.4c1.7,1.5,3.4,2.3,5.7,2.3c2.2,0,3.7-1.2,3.7-2.8v0c0-1.5-0.8-2.4-4.4-3.1
						c-3.9-0.8-5.6-2-5.6-4.7v0c0-2.6,2.3-4.5,5.5-4.5c2.4,0,4.2,0.7,5.9,2l-1.1,1.4c-1.6-1.2-3.1-1.8-4.8-1.8
						c-2.2,0-3.6,1.2-3.6,2.6v0c0,1.5,0.9,2.4,4.5,3.2c3.7,0.8,5.5,2.1,5.5,4.6v0c0,2.8-2.4,4.6-5.7,4.6
						C-1691.8-662.9-1694-663.7-1696-665.5z"></path>
</g>
</g>
  <g>
<g>
<g>
<path class="st3" d="M-1958.9-667c0,1.5-0.8,2.9-2.1,3.6c-0.6,0.4-1.3,0.5-2,0.5c-0.2,0-83.2,0-83.3,0c-0.1,0-0.1,0-0.2,0
							c-1.3,0-2.4-0.6-3.2-1.5c-0.1-0.1-0.2-0.2-0.3-0.3c-0.1-0.1-0.2-0.3-0.2-0.4c-0.3-0.6-0.5-1.2-0.5-1.9c0-1,0.4-1.9,1-2.8
							c0.2-0.3,29.2-43.9,29.2-44c0,0-7.1-10.6-7.1-10.6l-0.6-0.9c-0.5-1-0.8-2.1-0.8-3.2c0-0.8,0.1-1.6,0.4-2.3
							c0.3-0.9,3.4-5.5,3.9-6.2l15.5,23.3l-27.6,41.4h63.8l-7.3-10.9h11.3c0.1,0.2,8.5,12.8,8.9,13.3c0.3,0.4,0.6,0.9,0.8,1.3
							C-1959-668.1-1958.9-667.5-1958.9-667z"></path>
  <path class="st3" d="M-1984.6-706.9h-11.3l-21.8-32.7c-0.8-1.1-1.2-2.4-1.2-3.9c0-1,0.3-2.1,0.7-3c0.3-0.6,3.5-5.3,3.5-5.4
							L-1984.6-706.9z"></path>
</g>
</g>
    <path class="st2" d="M-1914.4-662.9h-7.8c-0.1,0-0.3,0-0.3,0c-1.9,0-3.5-0.8-4.6-2.2c-0.1-0.1-0.1-0.2-0.1-0.2
					c0,0-0.1-0.1-0.1-0.2l-16.6-24.9c-0.2,0-44,0-44.5,0c-1.1,0-2.2,0-3.3-0.4c-1.9-0.6-3.3-2-4.4-3.6c-0.3-0.4-3.3-5.1-3.6-5.4
					l49.6,0l-34.1-51.2l-10.5,15.8l-5.6-8.5l16.2-24.3L-1914.4-662.9z"></path>
</g>
</g>
  <g>
<g>
<g>
<path class="st2" d="M-1887.6-463.7c-2.6-2.4-3.9-5.4-3.9-9.2c0-3.4,1.2-6.3,3.6-8.5c2.4-2.3,5.7-3.7,10.1-4.4
						c1.1-0.1,2.1-0.2,3.1-0.4c3.5-0.4,5.6-0.7,6.3-0.9c1.8-0.3,2.8-1.3,2.8-3.1c0-1.8-0.8-3.3-2.3-4.4c-1.5-1.1-3.4-1.7-5.7-1.7
						c-4,0-7,1.5-8.8,4.4c-0.4,0.6-0.9,1-1.4,1c-0.4,0-0.7-0.1-1-0.3l-4.2-2.8c-0.4-0.3-0.7-0.7-0.7-1.3c0-0.1,0-0.4,0.1-0.7
						c1.4-2.7,3.6-4.9,6.4-6.4c2.8-1.5,6-2.3,9.6-2.3c3.3,0,6.2,0.6,8.6,1.9c2.5,1.2,4.4,3,5.8,5.3c1.4,2.3,2,4.9,2,7.9l0,28
						c0,0.4-0.1,0.8-0.4,1.1c-0.3,0.3-0.7,0.4-1.1,0.4h-5.1c-0.4,0-0.8-0.1-1.1-0.4c-0.3-0.3-0.4-0.7-0.4-1.2l0-3.8
						c-3.4,3.6-7.5,5.4-12.2,5.4C-1881.6-460.2-1885-461.4-1887.6-463.7z M-1871.2-469.6c1.7-1,3.1-2.3,4.2-3.9
						c1.1-1.6,1.6-3.3,1.6-5.1v-1.5l-5.6,0.8c-3,0.3-5,0.6-5.9,0.8c-4.1,0.7-6.1,2.5-6.1,5.3c0,1.5,0.6,2.8,1.7,3.7
						c1.1,0.9,2.7,1.4,4.5,1.4C-1874.8-468.2-1873-468.6-1871.2-469.6z"></path>
  <path class="st2" d="M-1839-461.4c-2.5-0.8-4.7-2-6.6-3.5c-0.2-0.2-0.4-0.5-0.5-0.8c-0.1-0.3-0.1-0.6,0-0.9
						c0.3-0.8,1.2-2.4,2.5-4.7c0.4-0.6,0.9-0.9,1.5-0.9c0.3,0,0.7,0.1,1,0.3c1.8,1.2,3.5,2.1,5,2.7c1.6,0.6,3.2,0.9,5,0.9
						c2.1,0,3.7-0.4,4.8-1.2c1.1-0.8,1.6-1.8,1.6-3.2c0-1.1-0.5-2-1.4-2.7c-0.9-0.6-2.7-1.5-5.4-2.5l-2.7-1c-2.2-0.8-4-1.8-5.6-2.7
						s-2.8-2.3-3.9-4c-1.1-1.7-1.6-3.8-1.6-6.3c0-3.9,1.3-7,3.9-9.4c2.6-2.3,6.1-3.5,10.4-3.5c2.5,0,5,0.4,7.5,1.2
						c2.4,0.8,4.6,2,6.4,3.4c0.2,0.2,0.4,0.5,0.5,0.8c0.1,0.3,0.1,0.6,0,0.9c-0.4,1-1.2,2.6-2.2,4.7c-0.3,0.5-0.8,0.8-1.4,0.8
						c-0.3,0-0.7-0.1-1-0.3c-3.4-2.2-6.6-3.4-9.5-3.4c-1.7,0-3,0.4-4,1.1c-1,0.7-1.5,1.7-1.5,3c0,1.3,0.5,2.4,1.6,3.2
						c1.1,0.9,3.1,1.9,6,3c2.8,1.1,5,2,6.6,2.8c1.6,0.8,3,2,4.3,3.7c1.3,1.7,2,3.8,2,6.4c0,2.6-0.7,4.9-2,6.9
						c-1.3,2-3.2,3.5-5.5,4.6c-2.4,1.1-5.1,1.6-8.1,1.6C-1833.9-460.2-1836.5-460.6-1839-461.4z"></path>
  <path class="st2" d="M-1797.1-447.4c-0.3-0.4-0.3-0.9-0.1-1.5l3.9-11l-14.6-42.5c-0.1-0.3-0.1-0.5-0.1-0.7
						c0-0.5,0.2-0.9,0.5-1.2c0.3-0.3,0.8-0.5,1.3-0.5h5.2c0.5,0,1,0.1,1.4,0.4c0.4,0.3,0.7,0.7,0.9,1.2l10.1,30.6l10.1-30.6
						c0.1-0.5,0.4-0.9,0.9-1.2c0.4-0.3,0.9-0.4,1.4-0.4h4.8c0.5,0,1,0.2,1.3,0.5c0.3,0.3,0.5,0.7,0.5,1.2c0,0.1-0.1,0.4-0.1,0.7
						l-18.7,54c-0.2,0.5-0.5,0.9-0.9,1.2c-0.4,0.3-0.9,0.4-1.4,0.4h-4.9C-1796.4-446.7-1796.8-447-1797.1-447.4z"></path>
  <path class="st2" d="M-1759.1-460.6c-0.3-0.3-0.4-0.7-0.4-1.1l0-41.4c0-0.4,0.1-0.8,0.4-1.1c0.3-0.3,0.7-0.4,1.1-0.4h5.8
						c0.4,0,0.8,0.1,1.1,0.4c0.3,0.3,0.4,0.7,0.4,1.1v4.4c1.4-1.9,3-3.4,5-4.4c1.9-1.1,4-1.6,6.3-1.6c2.8,0,5.4,0.7,7.6,2
						s4,3.2,5.3,5.6c1.3,2.4,1.9,5.1,1.9,8l0,27.4c0,0.4-0.1,0.8-0.4,1.1c-0.3,0.3-0.7,0.4-1.1,0.4h-5.8c-0.4,0-0.8-0.1-1.1-0.4
						c-0.3-0.3-0.4-0.7-0.4-1.1l0-26.3c0-2.6-0.7-4.7-2-6.1c-1.3-1.4-3.2-2.1-5.7-2.1c-2.9,0-5.3,1-7,2.9c-1.7,1.9-2.6,4.6-2.6,7.9
						l0,23.7c0,0.4-0.1,0.8-0.4,1.1c-0.3,0.3-0.7,0.4-1.1,0.4h-5.8C-1758.4-460.2-1758.8-460.4-1759.1-460.6z"></path>
  <path class="st2" d="M-1703.9-462.6c-2.7-1.6-4.9-3.7-6.4-6.5c-1.6-2.7-2.4-5.7-2.4-8.9v-9c0-3.2,0.8-6.2,2.4-8.9
						c1.6-2.7,3.7-4.9,6.4-6.5c2.7-1.6,5.7-2.4,8.9-2.4c2.5,0,4.9,0.5,7.2,1.5c2.3,1,4.2,2.4,5.9,4.3c0.3,0.3,0.5,0.7,0.5,1.2
						c0,0.5-0.2,1-0.7,1.5l-3.2,3.2c-0.3,0.3-0.7,0.5-1.2,0.5c-0.4,0-0.9-0.2-1.3-0.7c-1.9-1.9-4.3-2.9-7.2-2.9
						c-2.4,0-4.5,0.9-6.2,2.6c-1.7,1.7-2.6,3.8-2.6,6.2v9.8c0,2.4,0.9,4.5,2.6,6.2c1.7,1.7,3.8,2.6,6.2,2.6c2.9,0,5.3-1,7.2-2.9
						c0.4-0.4,0.8-0.7,1.3-0.7c0.4,0,0.8,0.2,1.2,0.5l3.2,3.2c0.4,0.4,0.7,0.9,0.7,1.5c0,0.4-0.2,0.8-0.5,1.2
						c-1.6,1.8-3.6,3.3-5.9,4.3s-4.7,1.5-7.2,1.5C-1698.3-460.2-1701.2-461-1703.9-462.6z"></path>
</g>
  <g>
<path class="st2" d="M-1889.5-428.9h1.9v15.1h9.4v1.7h-11.3V-428.9z"></path>
    <path class="st2" d="M-1818.9-428.9h-1.8l-7.6,16.9h1.9l6.6-14.7l6.5,14.7h2L-1818.9-428.9z"></path>
    <path class="st2" d="M-1760.1-428.9h7.1c1.9,0,3.4,0.6,4.4,1.5c0.7,0.7,1.1,1.6,1.1,2.7v0c0,2.2-1.3,3.3-2.7,3.9
						c2,0.6,3.6,1.8,3.6,4.1v0c0,2.9-2.4,4.6-6.1,4.6h-7.4V-428.9z M-1749.4-424.5c0-1.7-1.3-2.7-3.7-2.7h-5.1v5.8h5
						C-1751-421.4-1749.4-422.4-1749.4-424.5L-1749.4-424.5z M-1752.9-419.7h-5.3v5.9h5.6c2.5,0,4.1-1.1,4.1-3v0
						C-1748.5-418.7-1750-419.7-1752.9-419.7z"></path>
    <path class="st2" d="M-1696-414.7l1.2-1.4c1.7,1.5,3.4,2.3,5.7,2.3c2.2,0,3.7-1.2,3.7-2.8v0c0-1.5-0.8-2.4-4.4-3.1
						c-3.9-0.8-5.6-2-5.6-4.7v0c0-2.6,2.3-4.5,5.5-4.5c2.4,0,4.2,0.7,5.9,2l-1.1,1.4c-1.6-1.2-3.1-1.8-4.8-1.8
						c-2.2,0-3.6,1.2-3.6,2.6v0c0,1.5,0.9,2.4,4.5,3.2c3.7,0.8,5.5,2.1,5.5,4.6v0c0,2.8-2.4,4.6-5.7,4.6
						C-1691.8-412.1-1694-412.9-1696-414.7z"></path>
</g>
</g>
    <g>
<g>
 <g>
<path class="st2" d="M-1958.9-416.1c0,1.5-0.8,2.9-2.1,3.6c-0.6,0.4-1.3,0.5-2,0.5c-0.2,0-83.2,0-83.3,0c-0.1,0-0.1,0-0.2,0
							c-1.3,0-2.4-0.6-3.2-1.5c-0.1-0.1-0.2-0.2-0.3-0.3c-0.1-0.1-0.2-0.3-0.2-0.4c-0.3-0.6-0.5-1.2-0.5-1.9c0-1,0.4-1.9,1-2.8
							c0.2-0.3,29.2-43.9,29.2-44c0,0-7.1-10.6-7.1-10.6l-0.6-0.9c-0.5-1-0.8-2.1-0.8-3.2c0-0.8,0.1-1.6,0.4-2.3
							c0.3-0.9,3.4-5.5,3.9-6.2l15.5,23.3l-27.6,41.4h63.8l-7.3-10.9h11.3c0.1,0.2,8.5,12.8,8.9,13.3c0.3,0.4,0.6,0.9,0.8,1.3
							C-1959-417.3-1958.9-416.7-1958.9-416.1z"></path>
   <path class="st2" d="M-1984.6-456.1h-11.3l-21.8-32.7c-0.8-1.1-1.2-2.4-1.2-3.9c0-1,0.3-2.1,0.7-3c0.3-0.6,3.5-5.3,3.5-5.4
							L-1984.6-456.1z"></path>
</g>
</g>
      <path class="st2" d="M-1914.4-412.1h-7.8c-0.1,0-0.3,0-0.3,0c-1.9,0-3.5-0.8-4.6-2.2c-0.1-0.1-0.1-0.2-0.1-0.2
					c0,0-0.1-0.1-0.1-0.2l-16.6-24.9c-0.2,0-44,0-44.5,0c-1.1,0-2.2,0-3.3-0.4c-1.9-0.6-3.3-2-4.4-3.6c-0.3-0.4-3.3-5.1-3.6-5.4
					l49.6,0l-34.1-51.2l-10.5,15.8l-5.6-8.5l16.2-24.3L-1914.4-412.1z"></path>
</g>
</g>
  <g>
<g>
<g>
<path class="st3" d="M-1887.6-206.4c-2.6-2.4-3.9-5.4-3.9-9.2c0-3.4,1.2-6.3,3.6-8.5c2.4-2.3,5.7-3.7,10.1-4.4
						c1.1-0.1,2.1-0.2,3.1-0.4c3.5-0.4,5.6-0.7,6.3-0.9c1.8-0.3,2.8-1.3,2.8-3.1c0-1.8-0.8-3.3-2.3-4.4c-1.5-1.1-3.4-1.7-5.7-1.7
						c-4,0-7,1.5-8.8,4.4c-0.4,0.6-0.9,1-1.4,1c-0.4,0-0.7-0.1-1-0.3l-4.2-2.8c-0.4-0.3-0.7-0.7-0.7-1.3c0-0.1,0-0.4,0.1-0.7
						c1.4-2.7,3.6-4.9,6.4-6.4c2.8-1.5,6-2.3,9.6-2.3c3.3,0,6.2,0.6,8.6,1.9c2.5,1.2,4.4,3,5.8,5.3c1.4,2.3,2,4.9,2,7.9l0,28
						c0,0.4-0.1,0.8-0.4,1.1c-0.3,0.3-0.7,0.4-1.1,0.4h-5.1c-0.4,0-0.8-0.1-1.1-0.4c-0.3-0.3-0.4-0.7-0.4-1.2l0-3.8
						c-3.4,3.6-7.5,5.4-12.2,5.4C-1881.6-202.9-1885-204.1-1887.6-206.4z M-1871.2-212.4c1.7-1,3.1-2.3,4.2-3.9
						c1.1-1.6,1.6-3.3,1.6-5.1v-1.5l-5.6,0.8c-3,0.3-5,0.6-5.9,0.8c-4.1,0.7-6.1,2.5-6.1,5.3c0,1.5,0.6,2.8,1.7,3.7
						c1.1,0.9,2.7,1.4,4.5,1.4C-1874.8-210.9-1873-211.4-1871.2-212.4z"></path>
  <path class="st3" d="M-1839-204.2c-2.5-0.8-4.7-2-6.6-3.5c-0.2-0.2-0.4-0.5-0.5-0.8c-0.1-0.3-0.1-0.6,0-0.9
						c0.3-0.8,1.2-2.4,2.5-4.7c0.4-0.6,0.9-0.9,1.5-0.9c0.3,0,0.7,0.1,1,0.3c1.8,1.2,3.5,2.1,5,2.7c1.6,0.6,3.2,0.9,5,0.9
						c2.1,0,3.7-0.4,4.8-1.2c1.1-0.8,1.6-1.8,1.6-3.2c0-1.1-0.5-2-1.4-2.7c-0.9-0.6-2.7-1.5-5.4-2.5l-2.7-1c-2.2-0.8-4-1.8-5.6-2.7
						c-1.5-1-2.8-2.3-3.9-4c-1.1-1.7-1.6-3.8-1.6-6.3c0-3.9,1.3-7,3.9-9.4c2.6-2.3,6.1-3.5,10.4-3.5c2.5,0,5,0.4,7.5,1.2
						c2.4,0.8,4.6,2,6.4,3.4c0.2,0.2,0.4,0.5,0.5,0.8c0.1,0.3,0.1,0.6,0,0.9c-0.4,1-1.2,2.6-2.2,4.7c-0.3,0.5-0.8,0.8-1.4,0.8
						c-0.3,0-0.7-0.1-1-0.3c-3.4-2.2-6.6-3.4-9.5-3.4c-1.7,0-3,0.4-4,1.1c-1,0.7-1.5,1.7-1.5,3c0,1.3,0.5,2.4,1.6,3.2
						c1.1,0.9,3.1,1.9,6,3c2.8,1.1,5,2,6.6,2.8c1.6,0.8,3,2,4.3,3.7c1.3,1.7,2,3.8,2,6.4c0,2.6-0.7,4.9-2,6.9
						c-1.3,2-3.2,3.5-5.5,4.6c-2.4,1.1-5.1,1.6-8.1,1.6C-1833.9-202.9-1836.5-203.3-1839-204.2z"></path>
  <path class="st3" d="M-1797.1-190.1c-0.3-0.4-0.3-0.9-0.1-1.5l3.9-11l-14.6-42.5c-0.1-0.3-0.1-0.5-0.1-0.7
						c0-0.5,0.2-0.9,0.5-1.2c0.3-0.3,0.8-0.5,1.3-0.5h5.2c0.5,0,1,0.1,1.4,0.4c0.4,0.3,0.7,0.7,0.9,1.2l10.1,30.6l10.1-30.6
						c0.1-0.5,0.4-0.9,0.9-1.2c0.4-0.3,0.9-0.4,1.4-0.4h4.8c0.5,0,1,0.2,1.3,0.5c0.3,0.3,0.5,0.7,0.5,1.2c0,0.1-0.1,0.4-0.1,0.7
						l-18.7,54c-0.2,0.5-0.5,0.9-0.9,1.2c-0.4,0.3-0.9,0.4-1.4,0.4h-4.9C-1796.4-189.5-1796.8-189.7-1797.1-190.1z"></path>
  <path class="st3" d="M-1759.1-203.4c-0.3-0.3-0.4-0.7-0.4-1.1l0-41.4c0-0.4,0.1-0.8,0.4-1.1s0.7-0.4,1.1-0.4h5.8
						c0.4,0,0.8,0.1,1.1,0.4s0.4,0.7,0.4,1.1v4.4c1.4-1.9,3-3.4,5-4.4c1.9-1.1,4-1.6,6.3-1.6c2.8,0,5.4,0.7,7.6,2
						c2.3,1.3,4,3.2,5.3,5.6c1.3,2.4,1.9,5.1,1.9,8l0,27.4c0,0.4-0.1,0.8-0.4,1.1c-0.3,0.3-0.7,0.4-1.1,0.4h-5.8
						c-0.4,0-0.8-0.1-1.1-0.4c-0.3-0.3-0.4-0.7-0.4-1.1l0-26.3c0-2.6-0.7-4.7-2-6.1c-1.3-1.4-3.2-2.1-5.7-2.1c-2.9,0-5.3,1-7,2.9
						c-1.7,1.9-2.6,4.6-2.6,7.9l0,23.7c0,0.4-0.1,0.8-0.4,1.1c-0.3,0.3-0.7,0.4-1.1,0.4h-5.8
						C-1758.4-202.9-1758.8-203.1-1759.1-203.4z"></path>
  <path class="st3" d="M-1703.9-205.3c-2.7-1.6-4.9-3.7-6.4-6.5c-1.6-2.7-2.4-5.7-2.4-8.9v-9c0-3.2,0.8-6.2,2.4-8.9
						c1.6-2.7,3.7-4.9,6.4-6.5c2.7-1.6,5.7-2.4,8.9-2.4c2.5,0,4.9,0.5,7.2,1.5s4.2,2.4,5.9,4.3c0.3,0.3,0.5,0.7,0.5,1.2
						c0,0.5-0.2,1-0.7,1.5l-3.2,3.2c-0.3,0.3-0.7,0.5-1.2,0.5c-0.4,0-0.9-0.2-1.3-0.7c-1.9-1.9-4.3-2.9-7.2-2.9
						c-2.4,0-4.5,0.9-6.2,2.6c-1.7,1.7-2.6,3.8-2.6,6.2v9.8c0,2.4,0.9,4.5,2.6,6.2c1.7,1.7,3.8,2.6,6.2,2.6c2.9,0,5.3-1,7.2-2.9
						c0.4-0.4,0.8-0.7,1.3-0.7c0.4,0,0.8,0.2,1.2,0.5l3.2,3.2c0.4,0.4,0.7,0.9,0.7,1.5c0,0.4-0.2,0.8-0.5,1.2
						c-1.6,1.8-3.6,3.3-5.9,4.3s-4.7,1.5-7.2,1.5C-1698.3-202.9-1701.2-203.7-1703.9-205.3z"></path>
</g>
  <g>
<path class="st3" d="M-1889.5-171.6h1.9v15.1h9.4v1.7h-11.3V-171.6z"></path>
    <path class="st3" d="M-1818.9-171.6h-1.8l-7.6,16.9h1.9l6.6-14.7l6.5,14.7h2L-1818.9-171.6z"></path>
    <path class="st3" d="M-1760.1-171.6h7.1c1.9,0,3.4,0.6,4.4,1.5c0.7,0.7,1.1,1.6,1.1,2.7v0c0,2.2-1.3,3.3-2.7,3.9
						c2,0.6,3.6,1.8,3.6,4.1v0c0,2.9-2.4,4.6-6.1,4.6h-7.4V-171.6z M-1749.4-167.2c0-1.7-1.3-2.7-3.7-2.7h-5.1v5.8h5
						C-1751-164.1-1749.4-165.2-1749.4-167.2L-1749.4-167.2z M-1752.9-162.4h-5.3v5.9h5.6c2.5,0,4.1-1.1,4.1-3v0
						C-1748.5-161.4-1750-162.4-1752.9-162.4z"></path>
    <path class="st3" d="M-1696-157.4l1.2-1.4c1.7,1.5,3.4,2.3,5.7,2.3c2.2,0,3.7-1.2,3.7-2.8v0c0-1.5-0.8-2.4-4.4-3.1
						c-3.9-0.8-5.6-2-5.6-4.7v0c0-2.6,2.3-4.5,5.5-4.5c2.4,0,4.2,0.7,5.9,2l-1.1,1.4c-1.6-1.2-3.1-1.8-4.8-1.8
						c-2.2,0-3.6,1.2-3.6,2.6v0c0,1.5,0.9,2.4,4.5,3.2c3.7,0.8,5.5,2.1,5.5,4.6v0c0,2.8-2.4,4.6-5.7,4.6
						C-1691.8-154.8-1694-155.6-1696-157.4z"></path>
</g>
</g>
    <g>
<g>
<g>
<path class="st3" d="M-1958.9-158.9c0,1.5-0.8,2.9-2.1,3.6c-0.6,0.4-1.3,0.5-2,0.5c-0.2,0-83.2,0-83.3,0c-0.1,0-0.1,0-0.2,0
							c-1.3,0-2.4-0.6-3.2-1.5c-0.1-0.1-0.2-0.2-0.3-0.3c-0.1-0.1-0.2-0.3-0.2-0.4c-0.3-0.6-0.5-1.2-0.5-1.9c0-1,0.4-1.9,1-2.8
							c0.2-0.3,29.2-43.9,29.2-44c0,0-7.1-10.6-7.1-10.6l-0.6-0.9c-0.5-1-0.8-2.1-0.8-3.2c0-0.8,0.1-1.6,0.4-2.3
							c0.3-0.9,3.4-5.5,3.9-6.2l15.5,23.3l-27.6,41.4h63.8l-7.3-10.9h11.3c0.1,0.2,8.5,12.8,8.9,13.3c0.3,0.4,0.6,0.9,0.8,1.3
							C-1959-160-1958.9-159.4-1958.9-158.9z"></path>
  <path class="st3" d="M-1984.6-198.8h-11.3l-21.8-32.7c-0.8-1.1-1.2-2.4-1.2-3.9c0-1,0.3-2.1,0.7-3c0.3-0.6,3.5-5.3,3.5-5.4
							L-1984.6-198.8z"></path>
</g>
</g>
      <path class="st3" d="M-1914.4-154.8h-7.8c-0.1,0-0.3,0-0.3,0c-1.9,0-3.5-0.8-4.6-2.2c-0.1-0.1-0.1-0.2-0.1-0.2
					c0,0-0.1-0.1-0.1-0.2l-16.6-24.9c-0.2,0-44,0-44.5,0c-1.1,0-2.2,0-3.3-0.4c-1.9-0.6-3.3-2-4.4-3.6c-0.3-0.4-3.3-5.1-3.6-5.4
					l49.6,0l-34.1-51.2l-10.5,15.8l-5.6-8.5l16.2-24.3L-1914.4-154.8z"></path>
</g>
</g>
</g>
    <g>
<g>
<g>
<path d="M-867.6-710.5c-2.6-2.4-3.9-5.4-3.9-9.2c0-3.4,1.2-6.3,3.6-8.5c2.4-2.3,5.7-3.7,10.1-4.4c1.1-0.1,2.1-0.2,3.1-0.4
					c3.5-0.4,5.6-0.7,6.3-0.9c1.8-0.3,2.8-1.3,2.8-3.1c0-1.8-0.8-3.3-2.3-4.4c-1.5-1.1-3.4-1.7-5.7-1.7c-4,0-7,1.5-8.8,4.4
					c-0.4,0.6-0.9,1-1.4,1c-0.4,0-0.7-0.1-1-0.3l-4.2-2.8c-0.4-0.3-0.7-0.7-0.7-1.3c0-0.1,0-0.4,0.1-0.7c1.4-2.7,3.6-4.9,6.4-6.4
					c2.8-1.5,6-2.3,9.6-2.3c3.3,0,6.2,0.6,8.6,1.9c2.5,1.2,4.4,3,5.8,5.3c1.4,2.3,2,4.9,2,7.9l0,28c0,0.4-0.1,0.8-0.4,1.1
					c-0.3,0.3-0.7,0.4-1.1,0.4h-5.1c-0.4,0-0.8-0.1-1.1-0.4c-0.3-0.3-0.4-0.7-0.4-1.2l0-3.8c-3.4,3.6-7.5,5.4-12.2,5.4
					C-861.6-706.9-865-708.1-867.6-710.5z M-851.2-716.4c1.7-1,3.1-2.3,4.2-3.9c1.1-1.6,1.6-3.3,1.6-5.1v-1.5l-5.6,0.8
					c-3,0.3-5,0.6-5.9,0.8c-4.1,0.7-6.1,2.5-6.1,5.3c0,1.5,0.6,2.8,1.7,3.7c1.1,0.9,2.7,1.4,4.5,1.4
					C-854.8-714.9-853-715.4-851.2-716.4z"></path>
  <path d="M-819-708.2c-2.5-0.8-4.7-2-6.6-3.5c-0.2-0.2-0.4-0.5-0.5-0.8c-0.1-0.3-0.1-0.6,0-0.9c0.3-0.8,1.2-2.4,2.5-4.7
					c0.4-0.6,0.9-0.9,1.5-0.9c0.3,0,0.7,0.1,1,0.3c1.8,1.2,3.5,2.1,5,2.7c1.6,0.6,3.2,0.9,5,0.9c2.1,0,3.7-0.4,4.8-1.2
					c1.1-0.8,1.6-1.8,1.6-3.2c0-1.1-0.5-2-1.4-2.7c-0.9-0.6-2.7-1.5-5.4-2.5l-2.7-1c-2.2-0.8-4-1.8-5.6-2.7c-1.5-1-2.8-2.3-3.9-4
					c-1.1-1.7-1.6-3.8-1.6-6.3c0-3.9,1.3-7,3.9-9.4c2.6-2.3,6.1-3.5,10.4-3.5c2.5,0,5,0.4,7.5,1.2c2.4,0.8,4.6,2,6.4,3.4
					c0.2,0.2,0.4,0.5,0.5,0.8c0.1,0.3,0.1,0.6,0,0.9c-0.4,1-1.2,2.6-2.2,4.7c-0.3,0.5-0.8,0.8-1.4,0.8c-0.3,0-0.7-0.1-1-0.3
					c-3.4-2.2-6.6-3.4-9.5-3.4c-1.7,0-3,0.4-4,1.1c-1,0.7-1.5,1.7-1.5,3c0,1.3,0.5,2.4,1.6,3.2c1.1,0.9,3.1,1.9,6,3
					c2.8,1.1,5,2,6.6,2.8c1.6,0.8,3,2,4.3,3.7c1.3,1.7,2,3.8,2,6.4c0,2.6-0.7,4.9-2,6.9c-1.3,2-3.2,3.5-5.5,4.6
					c-2.4,1.1-5.1,1.6-8.1,1.6C-813.9-706.9-816.5-707.4-819-708.2z"></path>
  <path d="M-777.1-694.1c-0.3-0.4-0.3-0.9-0.1-1.5l3.9-11l-14.6-42.5c-0.1-0.3-0.1-0.5-0.1-0.7c0-0.5,0.2-0.9,0.5-1.2
					c0.3-0.3,0.8-0.5,1.3-0.5h5.2c0.5,0,1,0.1,1.4,0.4c0.4,0.3,0.7,0.7,0.9,1.2l10.1,30.6l10.1-30.6c0.1-0.5,0.4-0.9,0.9-1.2
					c0.4-0.3,0.9-0.4,1.4-0.4h4.8c0.5,0,1,0.2,1.3,0.5c0.3,0.3,0.5,0.7,0.5,1.2c0,0.1-0.1,0.4-0.1,0.7l-18.7,54
					c-0.2,0.5-0.5,0.9-0.9,1.2c-0.4,0.3-0.9,0.4-1.4,0.4h-4.9C-776.4-693.5-776.8-693.7-777.1-694.1z"></path>
  <path d="M-739.1-707.4c-0.3-0.3-0.4-0.7-0.4-1.1l0-41.4c0-0.4,0.1-0.8,0.4-1.1c0.3-0.3,0.7-0.4,1.1-0.4h5.8
					c0.4,0,0.8,0.1,1.1,0.4c0.3,0.3,0.4,0.7,0.4,1.1v4.4c1.4-1.9,3-3.4,5-4.4c1.9-1.1,4-1.6,6.3-1.6c2.8,0,5.4,0.7,7.6,2
					c2.3,1.3,4,3.2,5.3,5.6s1.9,5.1,1.9,8l0,27.4c0,0.4-0.1,0.8-0.4,1.1c-0.3,0.3-0.7,0.4-1.1,0.4h-5.8c-0.4,0-0.8-0.1-1.1-0.4
					c-0.3-0.3-0.4-0.7-0.4-1.1l0-26.3c0-2.6-0.7-4.7-2-6.1c-1.3-1.4-3.2-2.1-5.7-2.1c-2.9,0-5.3,1-7,2.9c-1.7,1.9-2.6,4.6-2.6,7.9
					l0,23.7c0,0.4-0.1,0.8-0.4,1.1c-0.3,0.3-0.7,0.4-1.1,0.4h-5.8C-738.4-707-738.8-707.1-739.1-707.4z"></path>
  <path d="M-683.9-709.3c-2.7-1.6-4.9-3.7-6.4-6.5c-1.6-2.7-2.4-5.7-2.4-8.9v-9c0-3.2,0.8-6.2,2.4-8.9c1.6-2.7,3.7-4.9,6.4-6.5
					c2.7-1.6,5.7-2.4,8.9-2.4c2.5,0,4.9,0.5,7.2,1.5c2.3,1,4.2,2.4,5.9,4.3c0.3,0.3,0.5,0.7,0.5,1.2c0,0.5-0.2,1-0.7,1.5l-3.2,3.2
					c-0.3,0.3-0.7,0.5-1.2,0.5c-0.4,0-0.9-0.2-1.3-0.7c-1.9-1.9-4.3-2.9-7.2-2.9c-2.4,0-4.5,0.9-6.2,2.6c-1.7,1.7-2.6,3.8-2.6,6.2
					v9.8c0,2.4,0.9,4.5,2.6,6.2c1.7,1.7,3.8,2.6,6.2,2.6c2.9,0,5.3-1,7.2-2.9c0.4-0.4,0.8-0.7,1.3-0.7c0.4,0,0.8,0.2,1.2,0.5
					l3.2,3.2c0.4,0.4,0.7,0.9,0.7,1.5c0,0.4-0.2,0.8-0.5,1.2c-1.6,1.8-3.6,3.3-5.9,4.3s-4.7,1.5-7.2,1.5
					C-678.3-706.9-681.2-707.7-683.9-709.3z"></path>
</g>
  <g>
<path d="M-869.5-675.7h1.9v15.1h9.4v1.7h-11.3V-675.7z"></path>
    <path d="M-798.9-675.7h-1.8l-7.6,16.9h1.9l6.6-14.7l6.5,14.7h2L-798.9-675.7z"></path>
    <path d="M-740.1-675.7h7.1c1.9,0,3.4,0.6,4.4,1.5c0.7,0.7,1.1,1.6,1.1,2.7v0c0,2.2-1.3,3.3-2.7,3.9c2,0.6,3.6,1.8,3.6,4.1v0
					c0,2.9-2.4,4.6-6.1,4.6h-7.4V-675.7z M-729.4-671.2c0-1.7-1.3-2.7-3.7-2.7h-5.1v5.8h5C-731-668.2-729.4-669.2-729.4-671.2
					L-729.4-671.2z M-732.9-666.5h-5.3v5.9h5.6c2.5,0,4.1-1.1,4.1-3v0C-728.5-665.4-730-666.5-732.9-666.5z"></path>
    <path d="M-676-661.4l1.2-1.4c1.7,1.5,3.4,2.3,5.7,2.3c2.2,0,3.7-1.2,3.7-2.8v0c0-1.5-0.8-2.4-4.4-3.1c-3.9-0.8-5.6-2-5.6-4.7v0
					c0-2.6,2.3-4.5,5.5-4.5c2.4,0,4.2,0.7,5.9,2l-1.1,1.4c-1.6-1.2-3.1-1.8-4.8-1.8c-2.2,0-3.6,1.2-3.6,2.6v0c0,1.5,0.9,2.4,4.5,3.2
					c3.7,0.8,5.5,2.1,5.5,4.6v0c0,2.8-2.4,4.6-5.7,4.6C-671.8-658.8-674-659.7-676-661.4z"></path>
</g>
</g>
      <g>
<g>
<g>
<path d="M-938.9-662.9c0,1.5-0.8,2.9-2.1,3.6c-0.6,0.4-1.3,0.5-2,0.5c-0.2,0-83.2,0-83.3,0c-0.1,0-0.1,0-0.2,0
						c-1.3,0-2.4-0.6-3.2-1.5c-0.1-0.1-0.2-0.2-0.3-0.3c-0.1-0.1-0.2-0.3-0.2-0.4c-0.3-0.6-0.5-1.2-0.5-1.9c0-1,0.4-1.9,1-2.8
						c0.2-0.3,29.2-43.9,29.2-44c0,0-7.1-10.6-7.1-10.6l-0.6-0.9c-0.5-1-0.8-2.1-0.8-3.2c0-0.8,0.1-1.6,0.4-2.3
						c0.3-0.9,3.4-5.5,3.9-6.2l15.5,23.3l-27.6,41.4h63.8l-7.3-10.9h11.3c0.1,0.2,8.5,12.8,8.9,13.3c0.3,0.4,0.6,0.9,0.8,1.3
						C-939-664-938.9-663.5-938.9-662.9z"></path>
  <path d="M-964.6-702.8h-11.3l-21.8-32.7c-0.8-1.1-1.2-2.4-1.2-3.9c0-1,0.3-2.1,0.7-3c0.3-0.6,3.5-5.3,3.5-5.4L-964.6-702.8z"></path>
</g>
</g>
        <path d="M-894.4-658.8h-7.8c-0.1,0-0.3,0-0.3,0c-1.9,0-3.5-0.8-4.6-2.2c-0.1-0.1-0.1-0.2-0.1-0.2c0,0-0.1-0.1-0.1-0.2l-16.6-24.9
				c-0.2,0-44,0-44.5,0c-1.1,0-2.2,0-3.3-0.4c-1.9-0.6-3.3-2-4.4-3.6c-0.3-0.4-3.3-5.1-3.6-5.4l49.6,0l-34.1-51.2l-10.5,15.8
				l-5.6-8.5l16.2-24.3L-894.4-658.8z"></path>
</g>
</g>
    <g>
<g>
<g>
<path class="st1" d="M-1887.6,309.5c-2.6-2.4-3.9-5.4-3.9-9.2c0-3.4,1.2-6.3,3.6-8.5c2.4-2.3,5.7-3.7,10.1-4.4
					c1.1-0.1,2.1-0.2,3.1-0.4c3.5-0.4,5.6-0.7,6.3-0.9c1.8-0.3,2.8-1.3,2.8-3.1c0-1.8-0.8-3.3-2.3-4.4c-1.5-1.1-3.4-1.7-5.7-1.7
					c-4,0-7,1.5-8.8,4.4c-0.4,0.6-0.9,1-1.4,1c-0.4,0-0.7-0.1-1-0.3l-4.2-2.8c-0.4-0.3-0.7-0.7-0.7-1.3c0-0.1,0-0.4,0.1-0.7
					c1.4-2.7,3.6-4.9,6.4-6.4c2.8-1.5,6-2.3,9.6-2.3c3.3,0,6.2,0.6,8.6,1.9c2.5,1.2,4.4,3,5.8,5.3c1.4,2.3,2,4.9,2,7.9l0,28
					c0,0.4-0.1,0.8-0.4,1.1c-0.3,0.3-0.7,0.4-1.1,0.4h-5.1c-0.4,0-0.8-0.1-1.1-0.4c-0.3-0.3-0.4-0.7-0.4-1.2l0-3.8
					c-3.4,3.6-7.5,5.4-12.2,5.4C-1881.6,313.1-1885,311.9-1887.6,309.5z M-1871.2,303.6c1.7-1,3.1-2.3,4.2-3.9
					c1.1-1.6,1.6-3.3,1.6-5.1v-1.5l-5.6,0.8c-3,0.3-5,0.6-5.9,0.8c-4.1,0.7-6.1,2.5-6.1,5.3c0,1.5,0.6,2.8,1.7,3.7
					c1.1,0.9,2.7,1.4,4.5,1.4C-1874.8,305.1-1873,304.6-1871.2,303.6z"></path>
  <path class="st1" d="M-1839,311.8c-2.5-0.8-4.7-2-6.6-3.5c-0.2-0.2-0.4-0.5-0.5-0.8c-0.1-0.3-0.1-0.6,0-0.9
					c0.3-0.8,1.2-2.4,2.5-4.7c0.4-0.6,0.9-0.9,1.5-0.9c0.3,0,0.7,0.1,1,0.3c1.8,1.2,3.5,2.1,5,2.7c1.6,0.6,3.2,0.9,5,0.9
					c2.1,0,3.7-0.4,4.8-1.2c1.1-0.8,1.6-1.8,1.6-3.2c0-1.1-0.5-2-1.4-2.7c-0.9-0.6-2.7-1.5-5.4-2.5l-2.7-1c-2.2-0.8-4-1.8-5.6-2.7
					c-1.5-1-2.8-2.3-3.9-4c-1.1-1.7-1.6-3.8-1.6-6.3c0-3.9,1.3-7,3.9-9.4c2.6-2.3,6.1-3.5,10.4-3.5c2.5,0,5,0.4,7.5,1.2
					c2.4,0.8,4.6,2,6.4,3.4c0.2,0.2,0.4,0.5,0.5,0.8c0.1,0.3,0.1,0.6,0,0.9c-0.4,1-1.2,2.6-2.2,4.7c-0.3,0.5-0.8,0.8-1.4,0.8
					c-0.3,0-0.7-0.1-1-0.3c-3.4-2.2-6.6-3.4-9.5-3.4c-1.7,0-3,0.4-4,1.1c-1,0.7-1.5,1.7-1.5,3c0,1.3,0.5,2.4,1.6,3.2
					c1.1,0.9,3.1,1.9,6,3c2.8,1.1,5,2,6.6,2.8c1.6,0.8,3,2,4.3,3.7c1.3,1.7,2,3.8,2,6.4c0,2.6-0.7,4.9-2,6.9c-1.3,2-3.2,3.5-5.5,4.6
					c-2.4,1.1-5.1,1.6-8.1,1.6C-1833.9,313.1-1836.5,312.6-1839,311.8z"></path>
  <path class="st1" d="M-1797.1,325.9c-0.3-0.4-0.3-0.9-0.1-1.5l3.9-11l-14.6-42.5c-0.1-0.3-0.1-0.5-0.1-0.7
					c0-0.5,0.2-0.9,0.5-1.2c0.3-0.3,0.8-0.5,1.3-0.5h5.2c0.5,0,1,0.1,1.4,0.4c0.4,0.3,0.7,0.7,0.9,1.2l10.1,30.6l10.1-30.6
					c0.1-0.5,0.4-0.9,0.9-1.2c0.4-0.3,0.9-0.4,1.4-0.4h4.8c0.5,0,1,0.2,1.3,0.5c0.3,0.3,0.5,0.7,0.5,1.2c0,0.1-0.1,0.4-0.1,0.7
					l-18.7,54c-0.2,0.5-0.5,0.9-0.9,1.2c-0.4,0.3-0.9,0.4-1.4,0.4h-4.9C-1796.4,326.5-1796.8,326.3-1797.1,325.9z"></path>
  <path class="st1" d="M-1759.1,312.6c-0.3-0.3-0.4-0.7-0.4-1.1l0-41.4c0-0.4,0.1-0.8,0.4-1.1c0.3-0.3,0.7-0.4,1.1-0.4h5.8
					c0.4,0,0.8,0.1,1.1,0.4c0.3,0.3,0.4,0.7,0.4,1.1v4.4c1.4-1.9,3-3.4,5-4.4c1.9-1.1,4-1.6,6.3-1.6c2.8,0,5.4,0.7,7.6,2
					s4,3.2,5.3,5.6c1.3,2.4,1.9,5.1,1.9,8l0,27.4c0,0.4-0.1,0.8-0.4,1.1c-0.3,0.3-0.7,0.4-1.1,0.4h-5.8c-0.4,0-0.8-0.1-1.1-0.4
					c-0.3-0.3-0.4-0.7-0.4-1.1l0-26.3c0-2.6-0.7-4.7-2-6.1c-1.3-1.4-3.2-2.1-5.7-2.1c-2.9,0-5.3,1-7,2.9c-1.7,1.9-2.6,4.6-2.6,7.9
					l0,23.7c0,0.4-0.1,0.8-0.4,1.1c-0.3,0.3-0.7,0.4-1.1,0.4h-5.8C-1758.4,313-1758.8,312.9-1759.1,312.6z"></path>
  <path class="st1" d="M-1703.9,310.7c-2.7-1.6-4.9-3.7-6.4-6.5c-1.6-2.7-2.4-5.7-2.4-8.9v-9c0-3.2,0.8-6.2,2.4-8.9
					c1.6-2.7,3.7-4.9,6.4-6.5c2.7-1.6,5.7-2.4,8.9-2.4c2.5,0,4.9,0.5,7.2,1.5c2.3,1,4.2,2.4,5.9,4.3c0.3,0.3,0.5,0.7,0.5,1.2
					c0,0.5-0.2,1-0.7,1.5l-3.2,3.2c-0.3,0.3-0.7,0.5-1.2,0.5c-0.4,0-0.9-0.2-1.3-0.7c-1.9-1.9-4.3-2.9-7.2-2.9
					c-2.4,0-4.5,0.9-6.2,2.6c-1.7,1.7-2.6,3.8-2.6,6.2v9.8c0,2.4,0.9,4.5,2.6,6.2c1.7,1.7,3.8,2.6,6.2,2.6c2.9,0,5.3-1,7.2-2.9
					c0.4-0.4,0.8-0.7,1.3-0.7c0.4,0,0.8,0.2,1.2,0.5l3.2,3.2c0.4,0.4,0.7,0.9,0.7,1.5c0,0.4-0.2,0.8-0.5,1.2
					c-1.6,1.8-3.6,3.3-5.9,4.3s-4.7,1.5-7.2,1.5C-1698.3,313.1-1701.2,312.3-1703.9,310.7z"></path>
</g>
  <g>
<path class="st1" d="M-1889.5,344.3h1.9v15.1h9.4v1.7h-11.3V344.3z"></path>
    <path class="st1" d="M-1818.9,344.3h-1.8l-7.6,16.9h1.9l6.6-14.7l6.5,14.7h2L-1818.9,344.3z"></path>
    <path class="st1" d="M-1760.1,344.3h7.1c1.9,0,3.4,0.6,4.4,1.5c0.7,0.7,1.1,1.6,1.1,2.7v0c0,2.2-1.3,3.3-2.7,3.9
					c2,0.6,3.6,1.8,3.6,4.1v0c0,2.9-2.4,4.6-6.1,4.6h-7.4V344.3z M-1749.4,348.8c0-1.7-1.3-2.7-3.7-2.7h-5.1v5.8h5
					C-1751,351.8-1749.4,350.8-1749.4,348.8L-1749.4,348.8z M-1752.9,353.5h-5.3v5.9h5.6c2.5,0,4.1-1.1,4.1-3v0
					C-1748.5,354.6-1750,353.5-1752.9,353.5z"></path>
    <path class="st1" d="M-1696,358.6l1.2-1.4c1.7,1.5,3.4,2.3,5.7,2.3c2.2,0,3.7-1.2,3.7-2.8v0c0-1.5-0.8-2.4-4.4-3.1
					c-3.9-0.8-5.6-2-5.6-4.7v0c0-2.6,2.3-4.5,5.5-4.5c2.4,0,4.2,0.7,5.9,2l-1.1,1.4c-1.6-1.2-3.1-1.8-4.8-1.8
					c-2.2,0-3.6,1.2-3.6,2.6v0c0,1.5,0.9,2.4,4.5,3.2c3.7,0.8,5.5,2.1,5.5,4.6v0c0,2.8-2.4,4.6-5.7,4.6
					C-1691.8,361.2-1694,360.3-1696,358.6z"></path>
</g>
</g>
      <g>
<g>
<g>
<path class="st1" d="M-1958.9,357.1c0,1.5-0.8,2.9-2.1,3.6c-0.6,0.4-1.3,0.5-2,0.5c-0.2,0-83.2,0-83.3,0c-0.1,0-0.1,0-0.2,0
						c-1.3,0-2.4-0.6-3.2-1.5c-0.1-0.1-0.2-0.2-0.3-0.3c-0.1-0.1-0.2-0.3-0.2-0.4c-0.3-0.6-0.5-1.2-0.5-1.9c0-1,0.4-1.9,1-2.8
						c0.2-0.3,29.2-43.9,29.2-44c0,0-7.1-10.6-7.1-10.6l-0.6-0.9c-0.5-1-0.8-2.1-0.8-3.2c0-0.8,0.1-1.6,0.4-2.3
						c0.3-0.9,3.4-5.5,3.9-6.2l15.5,23.3l-27.6,41.4h63.8l-7.3-10.9h11.3c0.1,0.2,8.5,12.8,8.9,13.3c0.3,0.4,0.6,0.9,0.8,1.3
						C-1959,356-1958.9,356.5-1958.9,357.1z"></path>
  <path class="st1" d="M-1984.6,317.2h-11.3l-21.8-32.7c-0.8-1.1-1.2-2.4-1.2-3.9c0-1,0.3-2.1,0.7-3c0.3-0.6,3.5-5.3,3.5-5.4
						L-1984.6,317.2z"></path>
</g>
</g>
        <path class="st1" d="M-1914.4,361.2h-7.8c-0.1,0-0.3,0-0.3,0c-1.9,0-3.5-0.8-4.6-2.2c-0.1-0.1-0.1-0.2-0.1-0.2
				c0,0-0.1-0.1-0.1-0.2l-16.6-24.9c-0.2,0-44,0-44.5,0c-1.1,0-2.2,0-3.3-0.4c-1.9-0.6-3.3-2-4.4-3.6c-0.3-0.4-3.3-5.1-3.6-5.4
				l49.6,0l-34.1-51.2l-10.5,15.8l-5.6-8.5l16.2-24.3L-1914.4,361.2z"></path>
</g>
</g>
    <g>
<g>
<g>
<path class="st4" d="M-1887.6,809.5c-2.6-2.4-3.9-5.4-3.9-9.2c0-3.4,1.2-6.3,3.6-8.5c2.4-2.3,5.7-3.7,10.1-4.4
					c1.1-0.1,2.1-0.2,3.1-0.4c3.5-0.4,5.6-0.7,6.3-0.9c1.8-0.3,2.8-1.3,2.8-3.1c0-1.8-0.8-3.3-2.3-4.4c-1.5-1.1-3.4-1.7-5.7-1.7
					c-4,0-7,1.5-8.8,4.4c-0.4,0.6-0.9,1-1.4,1c-0.4,0-0.7-0.1-1-0.3l-4.2-2.8c-0.4-0.3-0.7-0.7-0.7-1.3c0-0.1,0-0.4,0.1-0.7
					c1.4-2.7,3.6-4.9,6.4-6.4c2.8-1.5,6-2.3,9.6-2.3c3.3,0,6.2,0.6,8.6,1.9c2.5,1.2,4.4,3,5.8,5.3c1.4,2.3,2,4.9,2,7.9l0,28
					c0,0.4-0.1,0.8-0.4,1.1c-0.3,0.3-0.7,0.4-1.1,0.4h-5.1c-0.4,0-0.8-0.1-1.1-0.4c-0.3-0.3-0.4-0.7-0.4-1.2l0-3.8
					c-3.4,3.6-7.5,5.4-12.2,5.4C-1881.6,813.1-1885,811.9-1887.6,809.5z M-1871.2,803.6c1.7-1,3.1-2.3,4.2-3.9
					c1.1-1.6,1.6-3.3,1.6-5.1v-1.5l-5.6,0.8c-3,0.3-5,0.6-5.9,0.8c-4.1,0.7-6.1,2.5-6.1,5.3c0,1.5,0.6,2.8,1.7,3.7
					c1.1,0.9,2.7,1.4,4.5,1.4C-1874.8,805.1-1873,804.6-1871.2,803.6z"></path>
  <path class="st4" d="M-1839,811.8c-2.5-0.8-4.7-2-6.6-3.5c-0.2-0.2-0.4-0.5-0.5-0.8c-0.1-0.3-0.1-0.6,0-0.9
					c0.3-0.8,1.2-2.4,2.5-4.7c0.4-0.6,0.9-0.9,1.5-0.9c0.3,0,0.7,0.1,1,0.3c1.8,1.2,3.5,2.1,5,2.7c1.6,0.6,3.2,0.9,5,0.9
					c2.1,0,3.7-0.4,4.8-1.2c1.1-0.8,1.6-1.8,1.6-3.2c0-1.1-0.5-2-1.4-2.7c-0.9-0.6-2.7-1.5-5.4-2.5l-2.7-1c-2.2-0.8-4-1.8-5.6-2.7
					c-1.5-1-2.8-2.3-3.9-4c-1.1-1.7-1.6-3.8-1.6-6.3c0-3.9,1.3-7,3.9-9.4c2.6-2.3,6.1-3.5,10.4-3.5c2.5,0,5,0.4,7.5,1.2
					c2.4,0.8,4.6,2,6.4,3.4c0.2,0.2,0.4,0.5,0.5,0.8c0.1,0.3,0.1,0.6,0,0.9c-0.4,1-1.2,2.6-2.2,4.7c-0.3,0.5-0.8,0.8-1.4,0.8
					c-0.3,0-0.7-0.1-1-0.3c-3.4-2.2-6.6-3.4-9.5-3.4c-1.7,0-3,0.4-4,1.1c-1,0.7-1.5,1.7-1.5,3c0,1.3,0.5,2.4,1.6,3.2
					c1.1,0.9,3.1,1.9,6,3c2.8,1.1,5,2,6.6,2.8c1.6,0.8,3,2,4.3,3.7c1.3,1.7,2,3.8,2,6.4c0,2.6-0.7,4.9-2,6.9c-1.3,2-3.2,3.5-5.5,4.6
					c-2.4,1.1-5.1,1.6-8.1,1.6C-1833.9,813.1-1836.5,812.6-1839,811.8z"></path>
  <path class="st4" d="M-1797.1,825.9c-0.3-0.4-0.3-0.9-0.1-1.5l3.9-11l-14.6-42.5c-0.1-0.3-0.1-0.5-0.1-0.7
					c0-0.5,0.2-0.9,0.5-1.2c0.3-0.3,0.8-0.5,1.3-0.5h5.2c0.5,0,1,0.1,1.4,0.4c0.4,0.3,0.7,0.7,0.9,1.2l10.1,30.6l10.1-30.6
					c0.1-0.5,0.4-0.9,0.9-1.2c0.4-0.3,0.9-0.4,1.4-0.4h4.8c0.5,0,1,0.2,1.3,0.5c0.3,0.3,0.5,0.7,0.5,1.2c0,0.1-0.1,0.4-0.1,0.7
					l-18.7,54c-0.2,0.5-0.5,0.9-0.9,1.2c-0.4,0.3-0.9,0.4-1.4,0.4h-4.9C-1796.4,826.5-1796.8,826.3-1797.1,825.9z"></path>
  <path class="st4" d="M-1759.1,812.6c-0.3-0.3-0.4-0.7-0.4-1.1l0-41.4c0-0.4,0.1-0.8,0.4-1.1c0.3-0.3,0.7-0.4,1.1-0.4h5.8
					c0.4,0,0.8,0.1,1.1,0.4c0.3,0.3,0.4,0.7,0.4,1.1v4.4c1.4-1.9,3-3.4,5-4.4c1.9-1.1,4-1.6,6.3-1.6c2.8,0,5.4,0.7,7.6,2
					c2.3,1.3,4,3.2,5.3,5.6c1.3,2.4,1.9,5.1,1.9,8l0,27.4c0,0.4-0.1,0.8-0.4,1.1c-0.3,0.3-0.7,0.4-1.1,0.4h-5.8
					c-0.4,0-0.8-0.1-1.1-0.4c-0.3-0.3-0.4-0.7-0.4-1.1l0-26.3c0-2.6-0.7-4.7-2-6.1c-1.3-1.4-3.2-2.1-5.7-2.1c-2.9,0-5.3,1-7,2.9
					c-1.7,1.9-2.6,4.6-2.6,7.9l0,23.7c0,0.4-0.1,0.8-0.4,1.1c-0.3,0.3-0.7,0.4-1.1,0.4h-5.8C-1758.4,813-1758.8,812.9-1759.1,812.6z
					"></path>
  <path class="st4" d="M-1703.9,810.7c-2.7-1.6-4.9-3.7-6.4-6.5c-1.6-2.7-2.4-5.7-2.4-8.9v-9c0-3.2,0.8-6.2,2.4-8.9
					c1.6-2.7,3.7-4.9,6.4-6.5c2.7-1.6,5.7-2.4,8.9-2.4c2.5,0,4.9,0.5,7.2,1.5c2.3,1,4.2,2.4,5.9,4.3c0.3,0.3,0.5,0.7,0.5,1.2
					c0,0.5-0.2,1-0.7,1.5l-3.2,3.2c-0.3,0.3-0.7,0.5-1.2,0.5c-0.4,0-0.9-0.2-1.3-0.7c-1.9-1.9-4.3-2.9-7.2-2.9
					c-2.4,0-4.5,0.9-6.2,2.6c-1.7,1.7-2.6,3.8-2.6,6.2v9.8c0,2.4,0.9,4.5,2.6,6.2c1.7,1.7,3.8,2.6,6.2,2.6c2.9,0,5.3-1,7.2-2.9
					c0.4-0.4,0.8-0.7,1.3-0.7c0.4,0,0.8,0.2,1.2,0.5l3.2,3.2c0.4,0.4,0.7,0.9,0.7,1.5c0,0.4-0.2,0.8-0.5,1.2
					c-1.6,1.8-3.6,3.3-5.9,4.3s-4.7,1.5-7.2,1.5C-1698.3,813.1-1701.2,812.3-1703.9,810.7z"></path>
</g>
  <g>
<path class="st0" d="M-1889.5,844.3h1.9v15.1h9.4v1.7h-11.3V844.3z"></path>
    <path class="st0" d="M-1818.9,844.3h-1.8l-7.6,16.9h1.9l6.6-14.7l6.5,14.7h2L-1818.9,844.3z"></path>
    <path class="st0" d="M-1760.1,844.3h7.1c1.9,0,3.4,0.6,4.4,1.5c0.7,0.7,1.1,1.6,1.1,2.7v0c0,2.2-1.3,3.3-2.7,3.9
					c2,0.6,3.6,1.8,3.6,4.1v0c0,2.9-2.4,4.6-6.1,4.6h-7.4V844.3z M-1749.4,848.8c0-1.7-1.3-2.7-3.7-2.7h-5.1v5.8h5
					C-1751,851.8-1749.4,850.8-1749.4,848.8L-1749.4,848.8z M-1752.9,853.5h-5.3v5.9h5.6c2.5,0,4.1-1.1,4.1-3v0
					C-1748.5,854.6-1750,853.5-1752.9,853.5z"></path>
    <path class="st0" d="M-1696,858.6l1.2-1.4c1.7,1.5,3.4,2.3,5.7,2.3c2.2,0,3.7-1.2,3.7-2.8v0c0-1.5-0.8-2.4-4.4-3.1
					c-3.9-0.8-5.6-2-5.6-4.7v0c0-2.6,2.3-4.5,5.5-4.5c2.4,0,4.2,0.7,5.9,2l-1.1,1.4c-1.6-1.2-3.1-1.8-4.8-1.8
					c-2.2,0-3.6,1.2-3.6,2.6v0c0,1.5,0.9,2.4,4.5,3.2c3.7,0.8,5.5,2.1,5.5,4.6v0c0,2.8-2.4,4.6-5.7,4.6
					C-1691.8,861.2-1694,860.3-1696,858.6z"></path>
</g>
</g>
      <g>
<g>
<g>
<path class="st0" d="M-1958.9,857.1c0,1.5-0.8,2.9-2.1,3.6c-0.6,0.4-1.3,0.5-2,0.5c-0.2,0-83.2,0-83.3,0c-0.1,0-0.1,0-0.2,0
						c-1.3,0-2.4-0.6-3.2-1.5c-0.1-0.1-0.2-0.2-0.3-0.3c-0.1-0.1-0.2-0.3-0.2-0.4c-0.3-0.6-0.5-1.2-0.5-1.9c0-1,0.4-1.9,1-2.8
						c0.2-0.3,29.2-43.9,29.2-44c0,0-7.1-10.6-7.1-10.6l-0.6-0.9c-0.5-1-0.8-2.1-0.8-3.2c0-0.8,0.1-1.6,0.4-2.3
						c0.3-0.9,3.4-5.5,3.9-6.2l15.5,23.3l-27.6,41.4h63.8l-7.3-10.9h11.3c0.1,0.2,8.5,12.8,8.9,13.3c0.3,0.4,0.6,0.9,0.8,1.3
						C-1959,856-1958.9,856.5-1958.9,857.1z"></path>
  <path class="st0" d="M-1984.6,817.2h-11.3l-21.8-32.7c-0.8-1.1-1.2-2.4-1.2-3.9c0-1,0.3-2.1,0.7-3c0.3-0.6,3.5-5.3,3.5-5.4
						L-1984.6,817.2z"></path>
</g>
</g>
        <path class="st4" d="M-1914.4,861.2h-7.8c-0.1,0-0.3,0-0.3,0c-1.9,0-3.5-0.8-4.6-2.2c-0.1-0.1-0.1-0.2-0.1-0.2
				c0,0-0.1-0.1-0.1-0.2l-16.6-24.9c-0.2,0-44,0-44.5,0c-1.1,0-2.2,0-3.3-0.4c-1.9-0.6-3.3-2-4.4-3.6c-0.3-0.4-3.3-5.1-3.6-5.4
				l49.6,0l-34.1-51.2l-10.5,15.8l-5.6-8.5l16.2-24.3L-1914.4,861.2z"></path>
</g>
</g>
    <g>
<g>
<g>
<path class="st0" d="M3.9,41.1C1.3,38.7,0,35.7,0,31.9c0-3.4,1.2-6.3,3.6-8.5c2.4-2.3,5.7-3.7,10.1-4.4c1.1-0.1,2.1-0.2,3.1-0.4
					c3.5-0.4,5.6-0.7,6.3-0.9c1.8-0.3,2.8-1.3,2.8-3.1c0-1.8-0.8-3.3-2.3-4.4s-3.4-1.7-5.7-1.7c-4,0-7,1.5-8.8,4.4
					c-0.4,0.6-0.9,1-1.4,1c-0.4,0-0.7-0.1-1-0.3l-4.2-2.8c-0.4-0.3-0.7-0.7-0.7-1.3c0-0.1,0-0.4,0.1-0.7c1.4-2.7,3.6-4.9,6.4-6.4
					C11.3,0.8,14.5,0,18,0c3.3,0,6.2,0.6,8.6,1.9c2.5,1.2,4.4,3,5.8,5.3c1.4,2.3,2,4.9,2,7.9l0,28c0,0.4-0.1,0.8-0.4,1.1
					c-0.3,0.3-0.7,0.4-1.1,0.4h-5.1c-0.4,0-0.8-0.1-1.1-0.4c-0.3-0.3-0.4-0.7-0.4-1.2l0-3.8c-3.4,3.6-7.5,5.4-12.2,5.4
					C9.9,44.6,6.5,43.5,3.9,41.1z M20.3,35.2c1.7-1,3.1-2.3,4.2-3.9c1.1-1.6,1.6-3.3,1.6-5.1v-1.5l-5.6,0.8c-3,0.3-5,0.6-5.9,0.8
					c-4.1,0.7-6.1,2.5-6.1,5.3c0,1.5,0.6,2.8,1.7,3.7c1.1,0.9,2.7,1.4,4.5,1.4C16.7,36.7,18.5,36.2,20.3,35.2z"></path>
  <path class="st0" d="M52.5,43.4c-2.5-0.8-4.7-2-6.6-3.5c-0.2-0.2-0.4-0.5-0.5-0.8c-0.1-0.3-0.1-0.6,0-0.9
					c0.3-0.8,1.2-2.4,2.5-4.7c0.4-0.6,0.9-0.9,1.5-0.9c0.3,0,0.7,0.1,1,0.3c1.8,1.2,3.5,2.1,5,2.7c1.6,0.6,3.2,0.9,5,0.9
					c2.1,0,3.7-0.4,4.8-1.2c1.1-0.8,1.6-1.8,1.6-3.2c0-1.1-0.5-2-1.4-2.7c-0.9-0.6-2.7-1.5-5.4-2.5l-2.7-1c-2.2-0.8-4-1.8-5.6-2.7
					c-1.5-1-2.8-2.3-3.9-4c-1.1-1.7-1.6-3.8-1.6-6.3c0-3.9,1.3-7,3.9-9.4c2.6-2.3,6.1-3.5,10.4-3.5c2.5,0,5,0.4,7.5,1.2
					c2.4,0.8,4.6,2,6.4,3.4c0.2,0.2,0.4,0.5,0.5,0.8c0.1,0.3,0.1,0.6,0,0.9c-0.4,1-1.2,2.6-2.2,4.7c-0.3,0.5-0.8,0.8-1.4,0.8
					c-0.3,0-0.7-0.1-1-0.3c-3.4-2.2-6.6-3.4-9.5-3.4c-1.7,0-3,0.4-4,1.1c-1,0.7-1.5,1.7-1.5,3c0,1.3,0.5,2.4,1.6,3.2
					c1.1,0.9,3.1,1.9,6,3c2.8,1.1,5,2,6.6,2.8s3,2,4.3,3.7c1.3,1.7,2,3.8,2,6.4c0,2.6-0.7,4.9-2,6.9c-1.3,2-3.2,3.5-5.5,4.6
					c-2.4,1.1-5.1,1.6-8.1,1.6C57.6,44.6,55,44.2,52.5,43.4z"></path>
  <path class="st0" d="M94.4,57.4C94.1,57,94,56.5,94.2,56l3.9-11L83.5,2.5c-0.1-0.3-0.1-0.5-0.1-0.7c0-0.5,0.2-0.9,0.5-1.2
					c0.3-0.3,0.8-0.5,1.3-0.5h5.2c0.5,0,1,0.1,1.4,0.4c0.4,0.3,0.7,0.7,0.9,1.2l10.1,30.6l10.1-30.6c0.1-0.5,0.4-0.9,0.9-1.2
					c0.4-0.3,0.9-0.4,1.4-0.4h4.8c0.5,0,1,0.2,1.3,0.5c0.3,0.3,0.5,0.7,0.5,1.2c0,0.1-0.1,0.4-0.1,0.7l-18.7,54
					c-0.2,0.5-0.5,0.9-0.9,1.2c-0.4,0.3-0.9,0.4-1.4,0.4h-4.9C95.1,58.1,94.7,57.9,94.4,57.4z"></path>
  <path class="st0" d="M132.4,44.2c-0.3-0.3-0.4-0.7-0.4-1.1l0-41.4c0-0.4,0.1-0.8,0.4-1.1s0.7-0.4,1.1-0.4h5.8
					c0.4,0,0.8,0.1,1.1,0.4s0.4,0.7,0.4,1.1v4.4c1.4-1.9,3-3.4,5-4.4c1.9-1.1,4-1.6,6.3-1.6c2.8,0,5.4,0.7,7.6,2
					c2.3,1.3,4,3.2,5.3,5.6c1.3,2.4,1.9,5.1,1.9,8l0,27.4c0,0.4-0.1,0.8-0.4,1.1c-0.3,0.3-0.7,0.4-1.1,0.4h-5.8
					c-0.4,0-0.8-0.1-1.1-0.4c-0.3-0.3-0.4-0.7-0.4-1.1l0-26.3c0-2.6-0.7-4.7-2-6.1c-1.3-1.4-3.2-2.1-5.7-2.1c-2.9,0-5.3,1-7,2.9
					c-1.7,1.9-2.6,4.6-2.6,7.9l0,23.7c0,0.4-0.1,0.8-0.4,1.1c-0.3,0.3-0.7,0.4-1.1,0.4h-5.8C133,44.6,132.7,44.5,132.4,44.2z"></path>
  <path class="st0" d="M187.6,42.2c-2.7-1.6-4.9-3.7-6.4-6.5c-1.6-2.7-2.4-5.7-2.4-8.9v-9c0-3.2,0.8-6.2,2.4-8.9
					c1.6-2.7,3.7-4.9,6.4-6.5c2.7-1.6,5.7-2.4,8.9-2.4c2.5,0,4.9,0.5,7.2,1.5s4.2,2.4,5.9,4.3c0.3,0.3,0.5,0.7,0.5,1.2
					c0,0.5-0.2,1-0.7,1.5l-3.2,3.2c-0.3,0.3-0.7,0.5-1.2,0.5c-0.4,0-0.9-0.2-1.3-0.7c-1.9-1.9-4.3-2.9-7.2-2.9
					c-2.4,0-4.5,0.9-6.2,2.6c-1.7,1.7-2.6,3.8-2.6,6.2v9.8c0,2.4,0.9,4.5,2.6,6.2c1.7,1.7,3.8,2.6,6.2,2.6c2.9,0,5.3-1,7.2-2.9
					c0.4-0.4,0.8-0.7,1.3-0.7c0.4,0,0.8,0.2,1.2,0.5l3.2,3.2c0.4,0.4,0.7,0.9,0.7,1.5c0,0.4-0.2,0.8-0.5,1.2
					c-1.6,1.8-3.6,3.3-5.9,4.3c-2.3,1-4.7,1.5-7.2,1.5C193.2,44.6,190.3,43.8,187.6,42.2z"></path>
</g>
  <g>
<path class="st0" d="M2,75.9h1.9V91h9.4v1.7H2V75.9z"></path>
    <path class="st0" d="M72.6,75.9h-1.8l-7.6,16.9h1.9l6.6-14.7l6.5,14.7h2L72.6,75.9z"></path>
    <path class="st0" d="M131.4,75.9h7.1c1.9,0,3.4,0.6,4.4,1.5c0.7,0.7,1.1,1.6,1.1,2.7v0c0,2.2-1.3,3.3-2.7,3.9
					c2,0.6,3.6,1.8,3.6,4.1v0c0,2.9-2.4,4.6-6.1,4.6h-7.4V75.9z M142.1,80.3c0-1.7-1.3-2.7-3.7-2.7h-5.1v5.8h5
					C140.5,83.4,142.1,82.4,142.1,80.3L142.1,80.3z M138.6,85.1h-5.3V91h5.6c2.5,0,4.1-1.1,4.1-3v0C143,86.1,141.5,85.1,138.6,85.1z
					"></path>
    <path class="st0" d="M195.5,90.1l1.2-1.4c1.7,1.5,3.4,2.3,5.7,2.3c2.2,0,3.7-1.2,3.7-2.8v0c0-1.5-0.8-2.4-4.4-3.1
					c-3.9-0.8-5.6-2-5.6-4.7v0c0-2.6,2.3-4.5,5.5-4.5c2.4,0,4.2,0.7,5.9,2l-1.1,1.4c-1.6-1.2-3.1-1.8-4.8-1.8
					c-2.2,0-3.6,1.2-3.6,2.6v0c0,1.5,0.9,2.4,4.5,3.2c3.7,0.8,5.5,2.1,5.5,4.6v0c0,2.8-2.4,4.6-5.7,4.6
					C199.6,92.7,197.5,91.9,195.5,90.1z"></path>
</g>
</g>
      <g>
<g>
<g>
<path class="st0" d="M486-195.5c0,1.5-0.8,2.9-2.1,3.6c-0.6,0.4-1.3,0.5-2,0.5c-0.2,0-83.2,0-83.3,0c-0.1,0-0.1,0-0.2,0
						c-1.3,0-2.4-0.6-3.2-1.5c-0.1-0.1-0.2-0.2-0.3-0.3c-0.1-0.1-0.2-0.3-0.2-0.4c-0.3-0.6-0.5-1.2-0.5-1.9c0-1,0.4-1.9,1-2.8
						c0.2-0.3,29.2-43.9,29.2-44c0,0-7.1-10.6-7.1-10.6l-0.6-0.9c-0.5-1-0.8-2.1-0.8-3.2c0-0.8,0.1-1.6,0.4-2.3
						c0.3-0.9,3.4-5.5,3.9-6.2l15.5,23.3l-27.6,41.4h63.8l-7.3-10.9H476c0.1,0.2,8.5,12.8,8.9,13.3c0.3,0.4,0.6,0.9,0.8,1.3
						C485.9-196.6,486-196,486-195.5z"></path>
  <path class="st0" d="M460.3-235.4H449l-21.8-32.7c-0.8-1.1-1.2-2.4-1.2-3.9c0-1,0.3-2.1,0.7-3c0.3-0.6,3.5-5.3,3.5-5.4
						L460.3-235.4z"></path>
</g>
</g>
        <path class="st0" d="M530.5-191.4h-7.8c-0.1,0-0.3,0-0.3,0c-1.9,0-3.5-0.8-4.6-2.2c-0.1-0.1-0.1-0.2-0.1-0.2c0,0-0.1-0.1-0.1-0.2
				L501-218.8c-0.2,0-44,0-44.5,0c-1.1,0-2.2,0-3.3-0.4c-1.9-0.6-3.3-2-4.4-3.6c-0.3-0.4-3.3-5.1-3.6-5.4l49.6,0l-34.1-51.2
				l-10.5,15.8l-5.6-8.5l16.2-24.3L530.5-191.4z"></path>
</g>
</g>
    <g>
<g>
<text transform="matrix(1 0 0 1 -808.8025 320.9331)" class="st1" style="font-family:'Gotham-Medium'; font-size:29.2853px;">R38 G103 B198</text>
  <rect x="-1115.6" y="288.4" class="st3" width="40.6" height="40.6"></rect>
  <text transform="matrix(1 0 0 1 -1008.6697 320.9331)" class="st1" style="font-family:'Gotham-Medium'; font-size:29.2853px;">#2667C6</text>
</g>
      <g>
<text transform="matrix(1 0 0 1 -808.8025 416.7929)" class="st1" style="font-family:'Gotham-Medium'; font-size:29.2853px;">R107 G107 B107</text>
        <rect x="-1115.6" y="384.2" class="st1" width="40.6" height="40.6"></rect>
        <text transform="matrix(1 0 0 1 -1008.6697 416.7929)" class="st1" style="font-family:'Gotham-Medium'; font-size:29.2853px;">#6B6B6B</text>
</g>
      <g>
<rect x="-1115.6" y="192.5" class="st2" width="40.6" height="40.6"></rect>
        <text transform="matrix(1 0 0 1 -1008.6697 225.0737)" class="st1" style="font-family:'Gotham-Medium'; font-size:29.2853px;">#237EF3</text>
        <text transform="matrix(1 0 0 1 -808.8025 225.0737)" class="st1" style="font-family:'Gotham-Medium'; font-size:29.2853px;">R35 G126 B243</text>
</g>
</g>
    <g>
<g>
<rect x="-1122.5" y="734.1" class="st4" width="40.6" height="40.6"></rect>
  <text transform="matrix(1 0 0 1 -1015.5847 766.6716)" class="st0" style="font-family:'Gotham-Medium'; font-size:29.2853px;">#D9E3E8</text>
  <text transform="matrix(1 0 0 1 -815.7175 766.6716)" class="st0" style="font-family:'Gotham-Medium'; font-size:29.29px;">R217 G227 B232</text>
</g>
      <g>
<rect x="-1122.5" y="842.6" class="st0" width="40.6" height="40.6"></rect>
        <text transform="matrix(1 0 0 1 -1015.5847 875.1937)" class="st0" style="font-family:'Gotham-Medium'; font-size:29.2853px;">#FFFFFF</text>
        <text transform="matrix(1 0 0 1 -815.7175 875.1937)" class="st0" style="font-family:'Gotham-Medium'; font-size:29.29px;">R255 G255 B255</text>
</g>
</g>
</g>
</svg>
